<svg id="svg" xmlns="http://www.w3.org/2000/svg" xmlns:xlink="http://www.w3.org/1999/xlink" width="400" height="349.1525423728814" viewBox="0, 0, 400,349.1525423728814"><g id="svgg"><path id="path0" d="M208.625 48.020 C 178.101 54.329,148.415 72.737,132.079 95.484 L 128.570 100.371 123.324 98.821 C 74.649 84.437,22.599 99.941,22.599 128.825 C 22.599 147.347,28.382 148.779,49.777 135.556 C 66.446 125.254,81.534 123.247,105.870 128.095 C 113.358 129.587,113.174 128.890,109.482 141.808 C 103.595 162.412,105.990 197.760,114.780 219.985 C 145.455 297.540,243.530 324.476,310.067 273.621 C 365.324 231.387,375.901 151.048,333.508 95.583 C 305.076 58.383,253.507 38.743,208.625 48.020 M263.277 78.954 C 333.500 102.677,354.388 190.244,302.260 242.373 C 263.182 281.451,202.355 281.451,163.277 242.373 C 142.670 221.766,135.088 203.250,135.052 173.446 C 135.029 154.731,137.850 137.853,141.000 137.853 C 141.453 137.853,143.599 138.368,145.770 138.998 C 196.486 153.705,246.561 137.365,245.008 106.615 C 244.224 91.080,237.981 89.759,219.299 101.176 C 202.181 111.638,187.986 114.254,167.722 110.683 C 157.104 108.812,157.204 108.995,163.360 102.698 C 187.796 77.701,229.929 67.688,263.277 78.954 " stroke="none" fill="#000000" fill-rule="evenodd"></path></g></svg>